<?xml version="1.0" encoding="UTF-8"?>
<!DOCTYPE svg PUBLIC "-//W3C//DTD SVG 1.1//EN" "http://www.w3.org/Graphics/SVG/1.1/DTD/svg11.dtd">
<svg xmlns="http://www.w3.org/2000/svg" version="1.1" width="147px" height="39px" style="shape-rendering:geometricPrecision; text-rendering:geometricPrecision; image-rendering:optimizeQuality; fill-rule:evenodd; clip-rule:evenodd" xmlns:xlink="http://www.w3.org/1999/xlink">
<g><path style="opacity:0.803" fill="#fefffe" d="M 7.5,5.5 C 9.16667,5.5 10.8333,5.5 12.5,5.5C 12.3354,8.51838 12.502,11.5184 13,14.5C 15.872,11.9634 18.372,9.13011 20.5,6C 22.8333,5.33333 25.1667,5.33333 27.5,6C 23.9237,9.83338 20.5904,13.8334 17.5,18C 20.7852,22.288 24.4519,26.288 28.5,30C 25.7728,30.8184 23.1062,30.6517 20.5,29.5C 18.1833,26.6826 15.6833,24.0159 13,21.5C 12.502,24.4816 12.3354,27.4816 12.5,30.5C 10.8333,30.5 9.16667,30.5 7.5,30.5C 7.5,22.1667 7.5,13.8333 7.5,5.5 Z"/></g>
<g><path style="opacity:0.786" fill="#fefffe" d="M 40.5,5.5 C 51.223,3.1856 57.5563,7.35227 59.5,18C 57.5588,28.8095 51.2255,32.8095 40.5,30C 34.333,26.1548 32.1663,20.6548 34,13.5C 35.3046,10.0386 37.4713,7.37197 40.5,5.5 Z M 44.5,9.5 C 53.0042,10.838 55.5042,15.5047 52,23.5C 45.103,27.9757 40.603,26.1424 38.5,18C 39.1745,14.1696 41.1745,11.3362 44.5,9.5 Z"/></g>
<g><path style="opacity:0.791" fill="#fefffe" d="M 66.5,5.5 C 68.5273,5.33788 70.5273,5.50454 72.5,6C 76.3712,10.9072 79.8712,16.0739 83,21.5C 83.4994,16.1771 83.666,10.8437 83.5,5.5C 85.1667,5.5 86.8333,5.5 88.5,5.5C 88.5,13.8333 88.5,22.1667 88.5,30.5C 86.8008,30.6602 85.1341,30.4935 83.5,30C 79.6667,24.8333 75.8333,19.6667 72,14.5C 71.5006,19.8229 71.334,25.1563 71.5,30.5C 69.8333,30.5 68.1667,30.5 66.5,30.5C 66.5,22.1667 66.5,13.8333 66.5,5.5 Z"/></g>
<g><path style="opacity:0.822" fill="#fefffe" d="M 97.5,5.5 C 103.29,5.09616 108.956,5.59616 114.5,7C 121.167,14.3333 121.167,21.6667 114.5,29C 108.956,30.4038 103.29,30.9038 97.5,30.5C 97.5,22.1667 97.5,13.8333 97.5,5.5 Z M 102.5,9.5 C 109.159,8.66687 113.159,11.5002 114.5,18C 113.159,24.4998 109.159,27.3331 102.5,26.5C 102.5,20.8333 102.5,15.1667 102.5,9.5 Z"/></g>
<g><path style="opacity:0.885" fill="#fefffe" d="M 127.5,5.5 C 133.167,5.5 138.833,5.5 144.5,5.5C 144.5,6.83333 144.5,8.16667 144.5,9.5C 140.5,9.5 136.5,9.5 132.5,9.5C 132.5,11.8333 132.5,14.1667 132.5,16.5C 135.5,16.5 138.5,16.5 141.5,16.5C 141.5,17.8333 141.5,19.1667 141.5,20.5C 138.5,20.5 135.5,20.5 132.5,20.5C 132.5,22.5 132.5,24.5 132.5,26.5C 136.5,26.5 140.5,26.5 144.5,26.5C 144.5,27.8333 144.5,29.1667 144.5,30.5C 138.833,30.5 133.167,30.5 127.5,30.5C 127.5,22.1667 127.5,13.8333 127.5,5.5 Z"/></g>
</svg>
